@startuml
class Payment {
    + process_payment()
}

class Credit_Card {
    - name_of_the_holder : str
    - card_number : str
    - expiration : str
    - cvv : str
    + __init__(self, name_of_the_holder : str, card_number : str, expiration : str, cvv : str)
    + process_payment()
}

class PayPal {
    - email : str
    - password : str
    + __init__(self, email : str, password : str)
    + process_payment()
}

Payment <|-- Credit_Card
Payment <|-- PayPal
@enduml